<?xml version="1.0" encoding="UTF-8" standalone="no"?>
<!DOCTYPE svg PUBLIC "-//W3C//DTD SVG 1.1//EN"
 "http://www.w3.org/Graphics/SVG/1.1/DTD/svg11.dtd">
<!-- Generated by graphviz version 2.42.4 (0)
 -->
<!-- Title: G Pages: 1 -->
<svg width="870pt" height="1137pt"
 viewBox="0.00 0.00 870.32 1137.32" xmlns="http://www.w3.org/2000/svg" xmlns:xlink="http://www.w3.org/1999/xlink">
<g id="graph0" class="graph" transform="scale(1 1) rotate(0) translate(20.16 1117.16)">
<title>G</title>
<polygon fill="white" stroke="transparent" points="-20.16,20.16 -20.16,-1117.16 850.16,-1117.16 850.16,20.16 -20.16,20.16"/>
<text text-anchor="middle" x="415" y="-1078.6" font-family="Arial" font-size="18.00">Proximie Real&#45;Time Multi&#45;View Action Segmentation on AWS</text>
<g id="clust1" class="cluster">
<title>cluster_hospital</title>
<path fill="white" stroke="#94a3b8" stroke-dasharray="5,2" d="M36,-884C36,-884 218,-884 218,-884 224,-884 230,-890 230,-896 230,-896 230,-1049 230,-1049 230,-1055 224,-1061 218,-1061 218,-1061 36,-1061 36,-1061 30,-1061 24,-1055 24,-1049 24,-1049 24,-896 24,-896 24,-890 30,-884 36,-884"/>
<text text-anchor="middle" x="127" y="-1042.6" font-family="Arial" font-size="18.00">Hospital</text>
</g>
<g id="clust2" class="cluster">
<title>cluster_aws</title>
<path fill="white" stroke="#64748b" d="M20,-8C20,-8 810,-8 810,-8 816,-8 822,-14 822,-20 822,-20 822,-842 822,-842 822,-848 816,-854 810,-854 810,-854 20,-854 20,-854 14,-854 8,-848 8,-842 8,-842 8,-20 8,-20 8,-14 14,-8 20,-8"/>
<text text-anchor="middle" x="415" y="-835.6" font-family="Arial" font-size="18.00">AWS Region — Private VPC</text>
</g>
<!-- cameras -->
<g id="node1" class="node">
<title>cameras</title>
<path fill="#e0f2fe" stroke="#334155" d="M169.5,-1025C169.5,-1025 84.5,-1025 84.5,-1025 78.5,-1025 72.5,-1019 72.5,-1013 72.5,-1013 72.5,-997 72.5,-997 72.5,-991 78.5,-985 84.5,-985 84.5,-985 169.5,-985 169.5,-985 175.5,-985 181.5,-991 181.5,-997 181.5,-997 181.5,-1013 181.5,-1013 181.5,-1019 175.5,-1025 169.5,-1025"/>
<text text-anchor="middle" x="127" y="-1008.2" font-family="Arial" font-size="11.00">1–3 OR Cameras</text>
<text text-anchor="middle" x="127" y="-996.2" font-family="Arial" font-size="11.00">RTSP video</text>
</g>
<!-- gateway -->
<g id="node2" class="node">
<title>gateway</title>
<path fill="#dbeafe" stroke="#334155" d="M210,-944C210,-944 44,-944 44,-944 38,-944 32,-938 32,-932 32,-932 32,-904 32,-904 32,-898 38,-892 44,-892 44,-892 210,-892 210,-892 216,-892 222,-898 222,-904 222,-904 222,-932 222,-932 222,-938 216,-944 210,-944"/>
<text text-anchor="middle" x="127" y="-927.2" font-family="Arial" font-size="11.00">Hospital Gateway</text>
<text text-anchor="middle" x="127" y="-915.2" font-family="Arial" font-size="11.00">Camera health • NTP capture time</text>
<text text-anchor="middle" x="127" y="-903.2" font-family="Arial" font-size="11.00">Stream identity • encrypted upload</text>
</g>
<!-- cameras&#45;&gt;gateway -->
<g id="edge1" class="edge">
<title>cameras&#45;&gt;gateway</title>
<path fill="none" stroke="#475569" d="M127,-984.71C127,-974.92 127,-962.76 127,-951.57"/>
<polygon fill="#475569" stroke="#475569" points="129.63,-951.52 127,-944.02 124.38,-951.52 129.63,-951.52"/>
</g>
<!-- kvs -->
<g id="node3" class="node">
<title>kvs</title>
<path fill="#fef3c7" stroke="#334155" d="M184.5,-818C184.5,-818 69.5,-818 69.5,-818 63.5,-818 57.5,-812 57.5,-806 57.5,-806 57.5,-778 57.5,-778 57.5,-772 63.5,-766 69.5,-766 69.5,-766 184.5,-766 184.5,-766 190.5,-766 196.5,-772 196.5,-778 196.5,-778 196.5,-806 196.5,-806 196.5,-812 190.5,-818 184.5,-818"/>
<text text-anchor="middle" x="127" y="-801.2" font-family="Arial" font-size="11.00">Kinesis Video Streams</text>
<text text-anchor="middle" x="127" y="-789.2" font-family="Arial" font-size="11.00">One stream per camera</text>
<text text-anchor="middle" x="127" y="-777.2" font-family="Arial" font-size="11.00">N&#45;day raw retention</text>
</g>
<!-- gateway&#45;&gt;kvs -->
<g id="edge2" class="edge">
<title>gateway&#45;&gt;kvs</title>
<path fill="none" stroke="#475569" d="M127,-891.91C127,-872.83 127,-846.42 127,-825.7"/>
<polygon fill="#475569" stroke="#475569" points="129.63,-825.56 127,-818.06 124.38,-825.56 129.63,-825.56"/>
<text text-anchor="middle" x="148.5" y="-864.8" font-family="Arial" font-size="9.00">live media</text>
</g>
<!-- sync -->
<g id="node4" class="node">
<title>sync</title>
<path fill="#dcfce7" stroke="#334155" d="M672.5,-716C672.5,-716 509.5,-716 509.5,-716 503.5,-716 497.5,-710 497.5,-704 497.5,-704 497.5,-664 497.5,-664 497.5,-658 503.5,-652 509.5,-652 509.5,-652 672.5,-652 672.5,-652 678.5,-652 684.5,-658 684.5,-664 684.5,-664 684.5,-704 684.5,-704 684.5,-710 678.5,-716 672.5,-716"/>
<text text-anchor="middle" x="591" y="-699.2" font-family="Arial" font-size="11.00">EKS CPU — Stream Coordinator</text>
<text text-anchor="middle" x="591" y="-687.2" font-family="Arial" font-size="11.00">Bounded jitter buffer</text>
<text text-anchor="middle" x="591" y="-675.2" font-family="Arial" font-size="11.00">Producer&#45;time alignment</text>
<text text-anchor="middle" x="591" y="-663.2" font-family="Arial" font-size="11.00">Watermark + view/time masks</text>
</g>
<!-- kvs&#45;&gt;sync -->
<g id="edge3" class="edge">
<title>kvs&#45;&gt;sync</title>
<path fill="none" stroke="#475569" d="M196.72,-775.07C274.6,-757.28 401.37,-728.32 490.08,-708.06"/>
<polygon fill="#475569" stroke="#475569" points="490.74,-710.6 497.47,-706.37 489.57,-705.48 490.74,-710.6"/>
<text text-anchor="middle" x="402" y="-738.8" font-family="Arial" font-size="9.00">producer timestamps</text>
</g>
<!-- feature -->
<g id="node5" class="node">
<title>feature</title>
<path fill="#f3e8ff" stroke="#334155" d="M669,-602C669,-602 513,-602 513,-602 507,-602 501,-596 501,-590 501,-590 501,-550 501,-550 501,-544 507,-538 513,-538 513,-538 669,-538 669,-538 675,-538 681,-544 681,-550 681,-550 681,-590 681,-590 681,-596 675,-602 669,-602"/>
<text text-anchor="middle" x="591" y="-585.2" font-family="Arial" font-size="11.00">EKS GPU — Feature Extraction</text>
<text text-anchor="middle" x="591" y="-573.2" font-family="Arial" font-size="11.00">Shared micro&#45;batches</text>
<text text-anchor="middle" x="591" y="-561.2" font-family="Arial" font-size="11.00">Visual backbone</text>
<text text-anchor="middle" x="591" y="-549.2" font-family="Arial" font-size="11.00">Decoded frames discarded</text>
</g>
<!-- sync&#45;&gt;feature -->
<g id="edge4" class="edge">
<title>sync&#45;&gt;feature</title>
<path fill="none" stroke="#475569" d="M591,-651.8C591,-638.82 591,-623.6 591,-609.9"/>
<polygon fill="#475569" stroke="#475569" points="593.63,-609.53 591,-602.03 588.38,-609.53 593.63,-609.53"/>
<text text-anchor="middle" x="632.5" y="-624.8" font-family="Arial" font-size="9.00">aligned valid frames</text>
</g>
<!-- monitoring -->
<g id="node15" class="node">
<title>monitoring</title>
<path fill="#f1f5f9" stroke="#334155" d="M802,-284C802,-284 612,-284 612,-284 606,-284 600,-278 600,-272 600,-272 600,-244 600,-244 600,-238 606,-232 612,-232 612,-232 802,-232 802,-232 808,-232 814,-238 814,-244 814,-244 814,-272 814,-272 814,-278 808,-284 802,-284"/>
<text text-anchor="middle" x="707" y="-267.2" font-family="Arial" font-size="11.00">CloudWatch + Managed Prometheus</text>
<text text-anchor="middle" x="707" y="-255.2" font-family="Arial" font-size="11.00">Stream lag • queue depth • latency</text>
<text text-anchor="middle" x="707" y="-243.2" font-family="Arial" font-size="11.00">GPU • masks • product metrics • alarms</text>
</g>
<!-- sync&#45;&gt;monitoring -->
<g id="edge16" class="edge">
<title>sync&#45;&gt;monitoring</title>
<path fill="none" stroke="#475569" stroke-dasharray="5,2" d="M646.56,-651.86C665.5,-641.25 682,-632 682,-632 682,-632 763,-571 763,-571 763,-571 763,-571 763,-359 763,-359 741.33,-320.31 724.95,-291.06"/>
<polygon fill="#475569" stroke="#475569" points="727.09,-289.5 721.13,-284.23 722.51,-292.06 727.09,-289.5"/>
<text text-anchor="middle" x="778" y="-459.8" font-family="Arial" font-size="9.00">metrics</text>
</g>
<!-- kds -->
<g id="node6" class="node">
<title>kds</title>
<path fill="#fef3c7" stroke="#334155" d="M540,-488C540,-488 428,-488 428,-488 422,-488 416,-482 416,-476 416,-476 416,-448 416,-448 416,-442 422,-436 428,-436 428,-436 540,-436 540,-436 546,-436 552,-442 552,-448 552,-448 552,-476 552,-476 552,-482 546,-488 540,-488"/>
<text text-anchor="middle" x="484" y="-471.2" font-family="Arial" font-size="11.00">Kinesis Data Streams</text>
<text text-anchor="middle" x="484" y="-459.2" font-family="Arial" font-size="11.00">Feature events</text>
<text text-anchor="middle" x="484" y="-447.2" font-family="Arial" font-size="11.00">Partition key = room_id</text>
</g>
<!-- feature&#45;&gt;kds -->
<g id="edge5" class="edge">
<title>feature&#45;&gt;kds</title>
<path fill="none" stroke="#475569" d="M559.48,-537.77C545.43,-523.86 528.95,-507.53 514.97,-493.68"/>
<polygon fill="#475569" stroke="#475569" points="516.73,-491.73 509.55,-488.31 513.03,-495.46 516.73,-491.73"/>
<text text-anchor="middle" x="572" y="-510.8" font-family="Arial" font-size="9.00">features + masks</text>
</g>
<!-- feature&#45;&gt;monitoring -->
<g id="edge17" class="edge">
<title>feature&#45;&gt;monitoring</title>
<path fill="none" stroke="#475569" stroke-dasharray="5,2" d="M606.27,-537.96C631.94,-485.75 681,-386 681,-386 681,-386 692.58,-329.44 700.28,-291.81"/>
<polygon fill="#475569" stroke="#475569" points="702.93,-291.97 701.86,-284.09 697.79,-290.91 702.93,-291.97"/>
</g>
<!-- temporal -->
<g id="node7" class="node">
<title>temporal</title>
<path fill="#dcfce7" stroke="#334155" d="M427.5,-386C427.5,-386 270.5,-386 270.5,-386 264.5,-386 258.5,-380 258.5,-374 258.5,-374 258.5,-346 258.5,-346 258.5,-340 264.5,-334 270.5,-334 270.5,-334 427.5,-334 427.5,-334 433.5,-334 439.5,-340 439.5,-346 439.5,-346 439.5,-374 439.5,-374 439.5,-380 433.5,-386 427.5,-386"/>
<text text-anchor="middle" x="349" y="-369.2" font-family="Arial" font-size="11.00">EKS CPU — Temporal Service</text>
<text text-anchor="middle" x="349" y="-357.2" font-family="Arial" font-size="11.00">Masked fusion → causal TCN</text>
<text text-anchor="middle" x="349" y="-345.2" font-family="Arial" font-size="11.00">Smoothing → confirmed timeline</text>
</g>
<!-- kds&#45;&gt;temporal -->
<g id="edge6" class="edge">
<title>kds&#45;&gt;temporal</title>
<path fill="none" stroke="#475569" d="M449.93,-435.77C431.47,-422.09 408.53,-405.1 389.2,-390.78"/>
<polygon fill="#475569" stroke="#475569" points="390.64,-388.58 383.06,-386.23 387.52,-392.8 390.64,-388.58"/>
<text text-anchor="middle" x="459.5" y="-408.8" font-family="Arial" font-size="9.00">room&#45;keyed events</text>
</g>
<!-- eventbridge -->
<g id="node8" class="node">
<title>eventbridge</title>
<path fill="#e0e7ff" stroke="#334155" d="M555.5,-278C555.5,-278 428.5,-278 428.5,-278 422.5,-278 416.5,-272 416.5,-266 416.5,-266 416.5,-250 416.5,-250 416.5,-244 422.5,-238 428.5,-238 428.5,-238 555.5,-238 555.5,-238 561.5,-238 567.5,-244 567.5,-250 567.5,-250 567.5,-266 567.5,-266 567.5,-272 561.5,-278 555.5,-278"/>
<text text-anchor="middle" x="492" y="-261.2" font-family="Arial" font-size="11.00">EventBridge</text>
<text text-anchor="middle" x="492" y="-249.2" font-family="Arial" font-size="11.00">Confirmed phase changes</text>
</g>
<!-- temporal&#45;&gt;eventbridge -->
<g id="edge7" class="edge">
<title>temporal&#45;&gt;eventbridge</title>
<path fill="none" stroke="#475569" d="M392,-333.87C409.64,-323.56 426,-314 426,-314 426,-314 445.28,-297.93 463,-283.17"/>
<polygon fill="#475569" stroke="#475569" points="464.84,-285.05 468.92,-278.24 461.47,-281.02 464.84,-285.05"/>
<text text-anchor="middle" x="466.5" y="-306.8" font-family="Arial" font-size="9.00">phase change</text>
</g>
<!-- ddb -->
<g id="node10" class="node">
<title>ddb</title>
<path fill="#ffe4e6" stroke="#334155" d="M391,-716C391,-716 249,-716 249,-716 243,-716 237,-710 237,-704 237,-704 237,-664 237,-664 237,-658 243,-652 249,-652 249,-652 391,-652 391,-652 397,-652 403,-658 403,-664 403,-664 403,-704 403,-704 403,-710 397,-716 391,-716"/>
<text text-anchor="middle" x="320" y="-699.2" font-family="Arial" font-size="11.00">DynamoDB</text>
<text text-anchor="middle" x="320" y="-687.2" font-family="Arial" font-size="11.00">Room/camera registry</text>
<text text-anchor="middle" x="320" y="-675.2" font-family="Arial" font-size="11.00">Latest phase + model version</text>
<text text-anchor="middle" x="320" y="-663.2" font-family="Arial" font-size="11.00">Hard&#45;example metadata TTL</text>
</g>
<!-- temporal&#45;&gt;ddb -->
<g id="edge10" class="edge">
<title>temporal&#45;&gt;ddb</title>
<path fill="none" stroke="#475569" d="M346.72,-386.28C341.68,-442.29 329.53,-577.13 323.51,-644.02"/>
<polygon fill="#475569" stroke="#475569" points="320.87,-644.13 322.81,-651.83 326.09,-644.6 320.87,-644.13"/>
<text text-anchor="middle" x="357" y="-510.8" font-family="Arial" font-size="9.00">latest state</text>
</g>
<!-- cache -->
<g id="node11" class="node">
<title>cache</title>
<path fill="#ffe4e6" stroke="#334155" d="M652.5,-386C652.5,-386 531.5,-386 531.5,-386 525.5,-386 519.5,-380 519.5,-374 519.5,-374 519.5,-346 519.5,-346 519.5,-340 525.5,-334 531.5,-334 531.5,-334 652.5,-334 652.5,-334 658.5,-334 664.5,-340 664.5,-346 664.5,-346 664.5,-374 664.5,-374 664.5,-380 658.5,-386 652.5,-386"/>
<text text-anchor="middle" x="592" y="-369.2" font-family="Arial" font-size="11.00">ElastiCache</text>
<text text-anchor="middle" x="592" y="-357.2" font-family="Arial" font-size="11.00">Short&#45;lived rolling feature</text>
<text text-anchor="middle" x="592" y="-345.2" font-family="Arial" font-size="11.00">and timeline state • TTL</text>
</g>
<!-- temporal&#45;&gt;cache -->
<g id="edge11" class="edge">
<title>temporal&#45;&gt;cache</title>
<path fill="none" stroke="#475569" d="M447.58,-360C468.9,-360 491.19,-360 511.7,-360"/>
<polygon fill="#475569" stroke="#475569" points="447.33,-357.38 439.83,-360 447.33,-362.63 447.33,-357.38"/>
<polygon fill="#475569" stroke="#475569" points="511.97,-362.63 519.47,-360 511.97,-357.38 511.97,-362.63"/>
<text text-anchor="middle" x="479.5" y="-365.8" font-family="Arial" font-size="9.00">rolling state</text>
</g>
<!-- distiller -->
<g id="node12" class="node">
<title>distiller</title>
<path fill="#fce7f3" stroke="#334155" d="M372,-284C372,-284 242,-284 242,-284 236,-284 230,-278 230,-272 230,-272 230,-244 230,-244 230,-238 236,-232 242,-232 242,-232 372,-232 372,-232 378,-232 384,-238 384,-244 384,-244 384,-272 384,-272 384,-278 378,-284 372,-284"/>
<text text-anchor="middle" x="307" y="-267.2" font-family="Arial" font-size="11.00">Hard&#45;Example Distiller</text>
<text text-anchor="middle" x="307" y="-255.2" font-family="Arial" font-size="11.00">Uncertainty • disagreement</text>
<text text-anchor="middle" x="307" y="-243.2" font-family="Arial" font-size="11.00">Fragmentation • OOD</text>
</g>
<!-- temporal&#45;&gt;distiller -->
<g id="edge12" class="edge">
<title>temporal&#45;&gt;distiller</title>
<path fill="none" stroke="#475569" d="M338.4,-333.77C332.98,-320.86 326.32,-305 320.53,-291.22"/>
<polygon fill="#475569" stroke="#475569" points="322.92,-290.12 317.59,-284.23 318.08,-292.16 322.92,-290.12"/>
<text text-anchor="middle" x="373.5" y="-306.8" font-family="Arial" font-size="9.00">hard&#45;example signals</text>
</g>
<!-- temporal&#45;&gt;monitoring -->
<g id="edge18" class="edge">
<title>temporal&#45;&gt;monitoring</title>
<path fill="none" stroke="#475569" stroke-dasharray="5,2" d="M438.88,-333.89C491,-319.33 556.66,-300.99 609.96,-286.11"/>
<polygon fill="#475569" stroke="#475569" points="610.88,-288.57 617.4,-284.03 609.47,-283.52 610.88,-288.57"/>
</g>
<!-- product -->
<g id="node9" class="node">
<title>product</title>
<path fill="#dbeafe" stroke="#334155" d="M576.5,-170C576.5,-170 407.5,-170 407.5,-170 401.5,-170 395.5,-164 395.5,-158 395.5,-158 395.5,-142 395.5,-142 395.5,-136 401.5,-130 407.5,-130 407.5,-130 576.5,-130 576.5,-130 582.5,-130 588.5,-136 588.5,-142 588.5,-142 588.5,-158 588.5,-158 588.5,-164 582.5,-170 576.5,-170"/>
<text text-anchor="middle" x="492" y="-153.2" font-family="Arial" font-size="11.00">Proximie Product Services</text>
<text text-anchor="middle" x="492" y="-141.2" font-family="Arial" font-size="11.00">Workflow UI and downstream APIs</text>
</g>
<!-- eventbridge&#45;&gt;product -->
<g id="edge8" class="edge">
<title>eventbridge&#45;&gt;product</title>
<path fill="none" stroke="#475569" d="M492,-237.56C492,-220.82 492,-196.5 492,-177.9"/>
<polygon fill="#475569" stroke="#475569" points="494.63,-177.82 492,-170.32 489.38,-177.82 494.63,-177.82"/>
</g>
<!-- ddb&#45;&gt;sync -->
<g id="edge9" class="edge">
<title>ddb&#45;&gt;sync</title>
<path fill="none" stroke="#475569" d="M410.9,-684C436.14,-684 463.72,-684 489.53,-684"/>
<polygon fill="#475569" stroke="#475569" points="410.65,-681.38 403.15,-684 410.65,-686.63 410.65,-681.38"/>
<polygon fill="#475569" stroke="#475569" points="489.62,-686.63 497.12,-684 489.62,-681.38 489.62,-686.63"/>
<text text-anchor="middle" x="450.25" y="-689.8" font-family="Arial" font-size="9.00">registry / health</text>
</g>
<!-- distiller&#45;&gt;ddb -->
<g id="edge14" class="edge">
<title>distiller&#45;&gt;ddb</title>
<path fill="none" stroke="#475569" d="M285.33,-284.39C266.77,-306.15 243,-334 243,-334 243,-334 225,-359 225,-359 225,-571 225,-571 225,-571 225,-571 260.83,-613.24 288.48,-645.84"/>
<polygon fill="#475569" stroke="#475569" points="286.68,-647.78 293.54,-651.8 290.69,-644.38 286.68,-647.78"/>
<text text-anchor="middle" x="262" y="-459.8" font-family="Arial" font-size="9.00">expiring metadata</text>
</g>
<!-- s3 -->
<g id="node13" class="node">
<title>s3</title>
<path fill="#ffedd5" stroke="#334155" d="M255,-182C255,-182 137,-182 137,-182 131,-182 125,-176 125,-170 125,-170 125,-130 125,-130 125,-124 131,-118 137,-118 137,-118 255,-118 255,-118 261,-118 267,-124 267,-130 267,-130 267,-170 267,-170 267,-176 261,-182 255,-182"/>
<text text-anchor="middle" x="196" y="-165.2" font-family="Arial" font-size="11.00">S3</text>
<text text-anchor="middle" x="196" y="-153.2" font-family="Arial" font-size="11.00">Model artifacts + distilled</text>
<text text-anchor="middle" x="196" y="-141.2" font-family="Arial" font-size="11.00">feature windows only</text>
<text text-anchor="middle" x="196" y="-129.2" font-family="Arial" font-size="11.00">Lifecycle + KMS</text>
</g>
<!-- distiller&#45;&gt;s3 -->
<g id="edge13" class="edge">
<title>distiller&#45;&gt;s3</title>
<path fill="none" stroke="#475569" d="M280.69,-231.88C266.76,-218.58 249.4,-201.99 234.03,-187.32"/>
<polygon fill="#475569" stroke="#475569" points="235.7,-185.28 228.46,-182 232.08,-189.08 235.7,-185.28"/>
<text text-anchor="middle" x="291.5" y="-204.8" font-family="Arial" font-size="9.00">distilled features</text>
</g>
<!-- offline -->
<g id="node14" class="node">
<title>offline</title>
<path fill="#f3e8ff" stroke="#334155" d="M270.5,-68C270.5,-68 121.5,-68 121.5,-68 115.5,-68 109.5,-62 109.5,-56 109.5,-56 109.5,-28 109.5,-28 109.5,-22 115.5,-16 121.5,-16 121.5,-16 270.5,-16 270.5,-16 276.5,-16 282.5,-22 282.5,-28 282.5,-28 282.5,-56 282.5,-56 282.5,-62 276.5,-68 270.5,-68"/>
<text text-anchor="middle" x="196" y="-51.2" font-family="Arial" font-size="11.00">Offline Curation</text>
<text text-anchor="middle" x="196" y="-39.2" font-family="Arial" font-size="11.00">SageMaker Processing / Batch</text>
<text text-anchor="middle" x="196" y="-27.2" font-family="Arial" font-size="11.00">Clustering + active learning</text>
</g>
<!-- s3&#45;&gt;offline -->
<g id="edge15" class="edge">
<title>s3&#45;&gt;offline</title>
<path fill="none" stroke="#475569" d="M196,-117.77C196,-104.6 196,-89.26 196,-75.91"/>
<polygon fill="#475569" stroke="#475569" points="198.63,-75.81 196,-68.31 193.38,-75.81 198.63,-75.81"/>
<text text-anchor="middle" x="237" y="-90.8" font-family="Arial" font-size="9.00">curated feature pool</text>
</g>
<!-- security -->
<g id="node16" class="node">
<title>security</title>
<path fill="#f1f5f9" stroke="#334155" d="M185.5,-284C185.5,-284 28.5,-284 28.5,-284 22.5,-284 16.5,-278 16.5,-272 16.5,-272 16.5,-244 16.5,-244 16.5,-238 22.5,-232 28.5,-232 28.5,-232 185.5,-232 185.5,-232 191.5,-232 197.5,-238 197.5,-244 197.5,-244 197.5,-272 197.5,-272 197.5,-278 191.5,-284 185.5,-284"/>
<text text-anchor="middle" x="107" y="-267.2" font-family="Arial" font-size="11.00">KMS • IAM • EKS Pod Identity</text>
<text text-anchor="middle" x="107" y="-255.2" font-family="Arial" font-size="11.00">Private subnets • VPC endpoints</text>
<text text-anchor="middle" x="107" y="-243.2" font-family="Arial" font-size="11.00">Secrets Manager • CloudTrail</text>
</g>
<!-- security&#45;&gt;kvs -->
<g id="edge19" class="edge">
<title>security&#45;&gt;kvs</title>
<path fill="none" stroke="#475569" stroke-dasharray="5,2" d="M109.02,-284.23C111.39,-313.86 115,-359 115,-359 115,-685 115,-685 115,-685 115,-685 120.61,-734.53 124.16,-765.88"/>
<text text-anchor="middle" x="158.5" y="-510.8" font-family="Arial" font-size="9.00">cross&#45;cutting controls</text>
</g>
<!-- security&#45;&gt;temporal -->
<g id="edge20" class="edge">
<title>security&#45;&gt;temporal</title>
<path fill="none" stroke="#475569" stroke-dasharray="5,2" d="M167.78,-284.12C204.61,-299.33 251.42,-318.68 288.25,-333.89"/>
</g>
<!-- security&#45;&gt;s3 -->
<g id="edge21" class="edge">
<title>security&#45;&gt;s3</title>
<path fill="none" stroke="#475569" stroke-dasharray="5,2" d="M128.09,-231.88C140.63,-216.94 156.64,-197.87 169.97,-182"/>
</g>
</g>
</svg>
